<svg xmlns="http://www.w3.org/2000/svg" width="501.607" height="489.629" viewBox="0 0 501.607 489.629"><g transform="translate(0 -0.004)"><path d="M603.45,250.388H468.288a11.632,11.632,0,0,0-11.618,11.618V562.4l-1.549.472-33.157,10.154a6.2,6.2,0,0,1-7.737-4.113L315.6,246.756a6.2,6.2,0,0,1,4.113-7.737l51.1-15.645,148.127-45.34,51.095-15.645a6.188,6.188,0,0,1,7.738,4.1l25.211,82.347Z" transform="translate(-285.008 -140.271)" fill="#f2f2f2"/><path d="M624.117,242.482l-30.384-99.247A13.162,13.162,0,0,0,577.29,134.5l-71.837,21.989L357.333,201.835l-71.837,22a13.179,13.179,0,0,0-8.737,16.443L380.608,579.46a13.187,13.187,0,0,0,12.594,9.318,13.005,13.005,0,0,0,3.849-.581l49.244-15.072,1.549-.48v-1.619l-1.549.472-49.7,15.219a11.629,11.629,0,0,1-14.507-7.706L278.247,239.817a11.6,11.6,0,0,1,7.706-14.507l71.837-22,148.119-45.34,71.837-22a11.606,11.606,0,0,1,14.507,7.706l30.245,98.8.48,1.549h1.611Z" transform="translate(-276.182 -133.913)" fill="#3f3d56"/><path d="M393.928,236.044a6.983,6.983,0,0,1-6.67-4.931l-9.976-32.586a6.97,6.97,0,0,1,4.625-8.706L518.175,148.1a6.977,6.977,0,0,1,8.706,4.624l9.976,32.586a6.979,6.979,0,0,1-4.624,8.706L395.964,235.738A6.953,6.953,0,0,1,393.928,236.044Z" transform="translate(-298.908 -137.043)" fill="#6c63ff"/><circle cx="15.49" cy="15.49" r="15.49" transform="translate(131.788 3.838)" fill="#6c63ff"/><circle cx="9.809" cy="9.809" r="9.809" transform="translate(137.469 9.52)" fill="#fff"/><path d="M800.69,620.935H538.9a6.591,6.591,0,0,1-6.583-6.583V300.67a6.591,6.591,0,0,1,6.583-6.583H800.69a6.591,6.591,0,0,1,6.583,6.583V614.351A6.591,6.591,0,0,1,800.69,620.935Z" transform="translate(-333.935 -170.028)" fill="#e6e6e6"/><path d="M672.021,274.087H508.985a13.185,13.185,0,0,0-13.167,13.167V603.1l1.549-.472V287.254a11.632,11.632,0,0,1,11.618-11.618H672.5Zm142.125,0H508.985a13.185,13.185,0,0,0-13.167,13.167V641.984a13.186,13.186,0,0,0,13.167,13.167H814.146a13.186,13.186,0,0,0,13.167-13.167V287.254A13.186,13.186,0,0,0,814.146,274.087Zm11.618,367.9A11.632,11.632,0,0,1,814.146,653.6H508.985a11.632,11.632,0,0,1-11.618-11.618V287.254a11.632,11.632,0,0,1,11.618-11.618H814.146a11.632,11.632,0,0,1,11.618,11.618Z" transform="translate(-325.705 -165.519)" fill="#3f3d56"/><path d="M758.3,304.107H615.789a6.979,6.979,0,0,1-6.971-6.971V263.058a6.978,6.978,0,0,1,6.971-6.971H758.3a6.979,6.979,0,0,1,6.971,6.971v34.079a6.979,6.979,0,0,1-6.971,6.971Z" transform="translate(-351.184 -161.46)" fill="#6c63ff"/><circle cx="15.49" cy="15.49" r="15.49" transform="translate(320.37 65.97)" fill="#6c63ff"/><circle cx="9.435" cy="9.435" r="9.435" transform="translate(326.425 72.025)" fill="#fff"/></g></svg>